<svg id="Capa_1"
     enable-background="new 0 0 511.753 511.753"
     height="512"
     viewBox="0 0 511.753 511.753"
     width="512"
     xmlns="http://www.w3.org/2000/svg">
    <g>
        <path d="m360.876 60.253h-210c-16.569 0-30 13.431-30 30v100c0 16.569 13.431 30 30 30h210c16.569 0 30-13.431 30-30v-100c0-16.568-13.431-30-30-30z"
              fill="#f37c7b"/>
        <circle cx="198.546" cy="119.605" fill="#eefaff" r="20"/>
        <circle cx="309.376" cy="119.605" fill="#eefaff" r="20"/>
        <path d="m120.876 260.25h270v164.33h-270z" fill="#f37c7b"/>
        <path d="m239.177 414.25v10.33h-118.3v-60.33h68.3c27.569 0 50 22.43 50 50z" fill="#ee6261"/>
        <path d="m390.876 364.25v60.33h-118.3v-10.33c0-27.57 22.43-50 50-50z" fill="#ee6261"/>
        <path d="m219.181 220.253h73.392v40h-73.392z" fill="#447d99"/>
        <g fill="#548eb5">
            <path d="m110.876 173.753h10v-67h-10c-16.569 0-30 13.431-30 30v7c0 16.569 13.432 30 30 30z"/>
            <path d="m400.876 173.753h-10v-67h10c16.569 0 30 13.431 30 30v7c0 16.569-13.431 30-30 30z"/>
            <path d="m110.876 327.25h10v-67h-10c-16.569 0-30 13.431-30 30v7c0 16.569 13.432 30 30 30z"/>
            <path d="m400.876 327.25h-10v-67h10c16.569 0 30 13.431 30 30v7c0 16.569-13.431 30-30 30z"/>
            <path d="m289.376 50.257v10h-67v-10c0-16.569 13.431-30 30-30h7c16.569 0 30 13.431 30 30z"/>
        </g>
        <path d="m120.876 260.25h50v164.33h-50z" fill="#ee6261"/>
        <path d="m189.181 504.253h-78.304c-16.569 0-30-13.431-30-30v-60c0-16.569 13.431-30 30-30h78.304c16.569 0 30 13.431 30 30v60c0 16.569-13.432 30-30 30z"
              fill="#548eb5"/>
        <path d="m400.876 504.253h-78.304c-16.569 0-30-13.431-30-30v-60c0-16.569 13.431-30 30-30h78.304c16.569 0 30 13.431 30 30v60c0 16.569-13.431 30-30 30z"
              fill="#baafba"/>
        <path d="m400.876 504.253h-78.304c-16.569 0-30-13.431-30-30v-60c0-16.569 13.431-30 30-30h78.304c16.569 0 30 13.431 30 30v60c0 16.569-13.431 30-30 30z"
              fill="#548eb5"/>
        <path d="m160.876 504.25h-50c-16.57 0-30-13.43-30-30v-60c0-16.57 13.43-30 30-30h50c-16.57 0-30 13.43-30 30v60c0 16.57 13.43 30 30 30z"
              fill="#447d99"/>
        <path d="m372.576 504.25h-50c-16.57 0-30-13.43-30-30v-60c0-16.57 13.43-30 30-30h50c-16.57 0-30 13.43-30 30v60c0 16.57 13.43 30 30 30z"
              fill="#447d99"/>
        <path d="m200.876 220.25h-50c-16.57 0-30-13.43-30-30v-100c0-16.57 13.43-30 30-30h50c-16.57 0-30 13.43-30 30v100c0 16.57 13.43 30 30 30z"
              fill="#ee6261"/>
        <path d="m30.79 358.384h43.087c3.866 0 7-3.134 7-7v-116.747c0-3.866-3.134-7-7-7h-43.087c-3.866 0-7 3.134-7 7v116.747c0 3.866 3.134 7 7 7z"
              fill="#eefaff"/>
        <path d="m60.786 358.38h-30c-3.86 0-7-3.13-7-7v-116.74c0-3.87 3.14-7 7-7h30c-3.86 0-7 3.13-7 7v116.74c0 3.87 3.141 7 7 7z"
              fill="#dff1f7"/>
        <path d="m437.876 358.384h43.087c3.866 0 7-3.134 7-7v-116.747c0-3.866-3.134-7-7-7h-43.087c-3.866 0-7 3.134-7 7v116.747c0 3.866 3.134 7 7 7z"
              fill="#eefaff"/>
        <path d="m467.876 358.38h-30c-3.87 0-7-3.13-7-7v-116.74c0-3.87 3.13-7 7-7h30c-3.87 0-7 3.13-7 7v116.74c0 3.87 3.13 7 7 7z"
              fill="#dff1f7"/>
        <path d="m330.876 321.863c0-11.046-8.954-20-20-20h-110c-11.046 0-20 8.954-20 20 0 11.046 8.954 20 20 20h110c11.046 0 20-8.954 20-20z"
              fill="#eefaff"/>
        <g>
            <path d="m487.966 284.91c4.143 0 7.5-3.357 7.5-7.5v-42.77c0-7.995-6.505-14.5-14.5-14.5h-43.09c-7.995 0-14.5 6.505-14.5 14.5v25.631c-6.272-4.719-14.064-7.521-22.5-7.521h-100.803v-24.997h60.804c20.678 0 37.5-16.822 37.5-37.5v-9c20.881.334 40-15.794 40-37.5v-7c.5-24.086-19.16-37.195-40-37.5v-9c0-20.678-16.822-37.5-37.5-37.5h-64c.545-19.636-12.886-37.252-32.915-39.706v-5.547c0-4.143-3.357-7.5-7.5-7.5s-7.5 3.357-7.5 7.5v5.419c-20.586 1.868-34.609 19.763-34.085 39.834h-64c-20.678 0-37.5 16.822-37.5 37.5v9c-20.881-.334-40 15.794-40 37.5v7c0 22.236 19.16 37.195 40 37.5v9c0 20.678 16.822 37.5 37.5 37.5h60.804v24.997h-90.804c-12.35 0-23.455.715-32.5 7.521v-25.631c0-7.995-6.505-14.5-14.5-14.5h-43.09c-7.995 0-14.5 6.505-14.5 14.5v42.771c0 4.143 3.357 7.5 7.5 7.5s7.5-3.357 7.5-7.5v-42.271h42.09v115.74h-42.09v-40.79c0-4.143-3.357-7.5-7.5-7.5s-7.5 3.357-7.5 7.5v41.29c0 7.995 6.505 14.5 14.5 14.5h43.09c7.995 0 14.5-6.505 14.5-14.5v-24.15c7.024 5.285 16.287 7.634 25 7.521v42.003c-20.881-.335-40 15.794-40 37.5v60c0 20.678 16.822 37.5 37.5 37.5h78.304c20.678 0 37.5-16.822 37.5-37.5v-42.174h58.393v42.173c0 20.678 16.822 37.5 37.5 37.5h78.304c20.678 0 37.5-16.822 37.5-37.5v-60c0-25.086-19.16-37.195-40-37.5v-42.003c8.713.113 17.976-2.235 25-7.521v24.15c0 7.995 6.505 14.5 14.5 14.5h43.09c7.995 0 14.5-6.505 14.5-14.5v-41.29c0-4.143-3.357-7.5-7.5-7.5s-7.5 3.357-7.5 7.5v40.79h-42.09v-115.739h42.09v42.271c-.002 4.142 3.356 7.499 7.498 7.499zm-64.59-148.157v7c0 14.314-9.5 22.5-25 22.5v-52c14.334-.465 25.108 10.414 25 22.5zm-171-108.996h7c14.313 0 22.5 8.743 22.5 24.996h-52c-.27-14.086 7-25.121 22.5-24.996zm-164 115.996v-7c0-14.314 10.167-22.5 25-22.5v52c-14.333.003-25-10.753-25-22.5zm40 46.5v-100c0-12.406 10.094-22.5 22.5-22.5h210c12.406 0 22.5 10.094 22.5 22.5v100c0 12.406-10.094 22.5-22.5 22.5h-210c-12.406 0-22.5-10.094-22.5-22.5zm98.304 37.5h58.393v24.997h-58.393zm-138.304 69.497v-7c0-14.314 11-22.5 25-22.5v52c-15.166 0-25.039-9.25-25-22.5zm22.5 94.503h78.304c11.363 0 22.5 8.747 22.5 25.33h-123.304c0-14.916 8.053-25.33 22.5-25.33zm-22.5 40.33h123.304v24.917h-123.304zm100.804 64.67h-78.304c-15.833 0-22.5-12.376-22.5-24.753h123.304c0 14.333-8.285 24.753-22.5 24.753zm234.196-39.753h-123.303v-24.917h123.304v24.917zm-22.5 39.753h-78.304c-14.215 0-22.5-11.42-22.5-24.753h123.304c0 15-8.285 24.753-22.5 24.753zm22.5-79.67h-123.303c0-15.416 8.052-25.33 22.5-25.33h78.304c15.333 0 22.509 12.665 22.499 25.33zm-100.803-40.33c-22.385 0-37.53 16.414-37.5 40.327h-58.393c.47-20.997-15.647-40.327-37.5-40.327h-60.804v-109.003h255v109.003zm75.803-57.003v-52c15.333 0 25 8.186 25 22.5v7c0 13.25-9.5 21.25-25 22.5z"/>
            <path d="m310.876 294.36h-110c-15.163 0-27.5 12.337-27.5 27.5 0 16.806 10.333 27.5 27.5 27.5h38.65c4.143 0 7.5-3.357 7.5-7.5s-3.357-7.5-7.5-7.5h-38.65c-7.615-.719-11.781-4.885-12.5-12.5 0-6.893 5.607-12.5 12.5-12.5h110c6.893 0 12.5 5.607 12.5 12.5s-5.607 12.5-12.5 12.5h-38.66c-4.143 0-7.5 3.357-7.5 7.5s3.357 7.5 7.5 7.5h38.66c15.163 0 27.5-12.337 27.5-27.5s-12.336-27.5-27.5-27.5z"/>
            <path d="m226.046 119.604c0-15.163-12.337-27.5-27.5-27.5s-27.5 12.337-27.5 27.5 12.337 27.5 27.5 27.5 27.5-12.336 27.5-27.5zm-27.5 12.5c-6.893 0-12.5-5.607-12.5-12.5s5.607-12.5 12.5-12.5 12.5 5.607 12.5 12.5-5.607 12.5-12.5 12.5z"/>
            <path d="m309.376 147.104c15.163 0 27.5-12.337 27.5-27.5s-12.337-27.5-27.5-27.5-27.5 12.337-27.5 27.5 12.337 27.5 27.5 27.5zm0-40c6.893 0 12.5 5.607 12.5 12.5s-5.607 12.5-12.5 12.5-12.5-5.607-12.5-12.5 5.608-12.5 12.5-12.5z"/>
            <path d="m289.376 186.253c4.143 0 7.5-3.357 7.5-7.5s-3.357-7.5-7.5-7.5h-65.83c-4.143 0-7.5 3.357-7.5 7.5s3.357 7.5 7.5 7.5z"/>
        </g>
    </g>
</svg>
